<?xml version="1.0" standalone="no"?>
<!DOCTYPE svg PUBLIC "-//W3C//DTD SVG 20010904//EN"
 "http://www.w3.org/TR/2001/REC-SVG-20010904/DTD/svg10.dtd">
<svg version="1.0" xmlns="http://www.w3.org/2000/svg"
 width="1999.000000pt" height="1999.000000pt" viewBox="0 0 1999.000000 1999.000000"
 preserveAspectRatio="xMidYMid meet">

<g transform="translate(0.000000,1999.000000) scale(0.100000,-0.100000)"
fill="#000000" stroke="none">
<path d="M12940 17955 c0 -10 12 -39 26 -63 15 -25 31 -59 35 -76 4 -17 17
-57 28 -88 43 -120 55 -233 55 -553 1 -189 -4 -335 -12 -395 -7 -52 -17 -129
-22 -170 -30 -228 -46 -329 -91 -565 -71 -369 -73 -377 -268 -1165 -197 -792
-240 -936 -330 -1088 -17 -29 -31 -54 -31 -56 0 -2 89 -6 198 -9 174 -5 422
-33 555 -63 26 -6 27 -5 27 34 0 48 30 166 240 957 326 1223 450 1887 450
2405 0 210 -16 381 -43 455 -17 49 -80 175 -112 224 -29 46 -119 91 -240 121
-49 12 -119 33 -154 47 -88 35 -153 51 -238 59 -66 6 -73 5 -73 -11z"/>
<path d="M7130 17870 c-30 -10 -65 -19 -76 -19 -40 -2 -375 -102 -422 -126
-26 -14 -59 -27 -74 -30 -45 -9 -95 -61 -118 -123 -37 -98 -50 -204 -51 -417
-1 -260 13 -410 72 -740 98 -552 169 -836 524 -2095 72 -253 175 -679 175
-721 0 -22 3 -39 8 -39 4 0 81 11 172 24 246 37 437 56 550 56 90 0 118 8 91
24 -19 12 -96 188 -143 326 -50 151 -136 433 -183 605 -15 55 -56 202 -91 326
-94 331 -186 701 -243 969 -48 225 -58 280 -115 610 -68 392 -95 866 -61 1090
9 63 26 140 37 170 27 73 35 130 17 129 -8 0 -39 -9 -69 -19z"/>
<path d="M9460 9358 c-360 -4 -747 -11 -860 -16 -113 -5 -434 -9 -715 -11
-529 -2 -638 -6 -654 -25 -5 -6 -11 -81 -14 -166 -9 -328 -117 -684 -348
-1152 -160 -323 -194 -407 -278 -688 -45 -152 -214 -792 -241 -915 -29 -128
-59 -241 -101 -381 -21 -71 -39 -143 -39 -160 0 -34 -22 -144 -47 -231 -17
-59 -16 -68 1 -185 9 -67 24 -140 32 -163 7 -22 30 -123 49 -225 136 -709 207
-996 312 -1265 107 -272 220 -486 366 -695 119 -169 185 -248 347 -414 219
-224 378 -345 605 -458 202 -102 375 -150 585 -163 118 -8 409 23 472 49 19 9
100 25 179 38 138 21 171 22 829 22 751 1 765 0 995 -59 72 -19 166 -39 210
-45 143 -18 199 -28 298 -54 91 -24 112 -26 320 -26 236 0 275 5 432 57 160
52 316 126 471 223 137 85 223 158 389 325 298 300 460 581 617 1070 76 238
140 549 187 915 43 328 50 556 30 905 l-11 190 -74 230 c-70 219 -97 322 -178
690 -65 291 -154 630 -210 796 -59 179 -107 297 -209 520 -95 208 -125 282
-174 424 -102 301 -172 635 -174 834 0 42 -4 98 -7 126 -7 47 -9 51 -47 63
-32 11 -274 15 -1265 19 -674 2 -1270 5 -1325 6 -55 1 -395 -1 -755 -5z"/>
</g>
</svg>
