<?xml version="1.0" standalone="no"?>
<!DOCTYPE svg PUBLIC "-//W3C//DTD SVG 20010904//EN"
 "http://www.w3.org/TR/2001/REC-SVG-20010904/DTD/svg10.dtd">
<svg version="1.0" xmlns="http://www.w3.org/2000/svg"
 width="768.000000pt" height="768.000000pt" viewBox="0 0 768.000000 768.000000"
 preserveAspectRatio="xMidYMid meet">

<g transform="translate(0.000000,768.000000) scale(0.100000,-0.100000)"
fill="#000000" stroke="none">
<path d="M5450 5650 c-39 -9 -221 -26 -465 -41 -275 -18 -919 -26 -1753 -22
l-802 5 26 -74 c14 -40 29 -77 34 -81 17 -18 286 -37 543 -37 l267 0 -7 -27
c-4 -16 -8 -40 -8 -56 0 -17 -5 -25 -12 -23 -6 3 -17 -1 -23 -9 -15 -18 29
-52 79 -61 20 -3 58 -12 85 -20 27 -8 64 -14 82 -14 36 0 38 -2 48 -43 6 -25
3 -29 -50 -52 -31 -14 -85 -45 -120 -70 -36 -25 -68 -45 -72 -45 -4 0 -20 -18
-36 -40 -18 -24 -38 -40 -50 -40 -16 0 -18 -2 -7 -9 11 -7 9 -17 -12 -52 -13
-24 -33 -69 -42 -99 -10 -30 -21 -59 -26 -65 -20 -20 -7 -163 27 -312 18 -81
18 -104 -1 -97 -19 8 -11 -18 20 -61 12 -16 32 -50 44 -75 12 -25 38 -76 57
-114 19 -38 33 -73 32 -78 -2 -6 -15 14 -28 44 -13 29 -25 54 -26 56 -3 6 -34
-11 -34 -20 0 -5 12 -36 28 -68 18 -39 34 -60 47 -62 23 -4 74 -75 75 -105 0
-12 5 -25 10 -28 6 -3 10 -11 10 -16 0 -6 -5 -7 -11 -3 -30 18 22 -98 70 -156
l20 -25 45 24 c82 42 82 42 16 161 -39 71 -63 105 -74 104 -23 -2 -44 30 -129
202 -142 282 -152 316 -152 509 0 149 0 151 33 219 51 108 162 204 239 207 26
1 26 1 5 8 -20 5 -13 11 55 44 100 49 173 70 248 73 55 2 62 0 87 -27 23 -24
35 -29 76 -29 36 0 54 -5 67 -20 18 -19 17 -20 -6 -21 -24 -1 -24 -1 2 -9 40
-12 91 -52 78 -61 -8 -4 -3 -11 12 -19 35 -18 82 -73 154 -180 35 -52 90 -131
124 -175 33 -44 88 -134 122 -201 59 -116 62 -124 66 -211 3 -63 -1 -109 -12
-153 -9 -34 -14 -68 -12 -75 6 -15 -23 -140 -68 -295 -19 -65 -35 -122 -35
-124 0 -3 -11 -15 -24 -28 -23 -21 -58 -135 -68 -219 -4 -36 23 -59 71 -59 39
0 40 0 55 53 32 114 47 180 42 192 -3 8 11 74 29 148 68 266 88 510 52 629
-28 91 -100 236 -161 323 -56 80 -139 204 -216 324 l-41 64 133 -9 c242 -16
273 -9 311 69 25 49 13 86 -35 110 -44 21 -172 45 -295 53 -80 6 -93 10 -99
26 -9 31 -65 78 -90 78 -27 0 -64 -32 -64 -55 0 -23 -24 -18 -50 10 -25 26
-77 34 -96 15 -7 -7 -42 6 -108 41 -54 28 -148 69 -208 90 -61 21 -112 40
-115 42 -2 3 112 8 254 11 304 7 355 10 613 30 107 8 265 20 350 26 85 6 193
16 240 21 132 16 571 106 600 124 11 7 14 46 3 44 -5 -1 -24 -5 -43 -9z
m-2026 -336 c26 -9 46 -18 44 -19 -5 -5 -96 20 -104 28 -12 11 9 8 60 -9z
m948 -272 c17 -17 -51 -23 -83 -7 -16 9 -29 17 -29 18 0 7 104 -3 112 -11z
m158 -32 c14 -5 19 -9 10 -10 -34 -6 -176 3 -190 11 -19 11 145 10 180 -1z
m-323 -50 c2 0 3 -4 3 -10 0 -5 -15 -10 -34 -10 -27 0 -39 7 -55 29 l-21 29
52 -19 c29 -10 54 -19 55 -19z m-797 -1160 c0 -5 -5 -10 -11 -10 -5 0 -7 5 -4
10 3 6 8 10 11 10 2 0 4 -4 4 -10z m85 -20 c3 -5 2 -10 -4 -10 -5 0 -13 -9
-16 -20 -9 -28 -45 -9 -38 20 6 21 47 28 58 10z m33 -76 c12 -25 18 -43 14
-40 -5 3 -15 19 -22 36 -7 16 -16 30 -21 30 -5 0 -9 5 -9 10 0 23 18 7 38 -36z
m912 -298 c0 -2 -7 -6 -15 -10 -8 -3 -15 -1 -15 4 0 6 7 10 15 10 8 0 15 -2
15 -4z"/>
<path d="M1145 5550 c-4 -17 -5 -34 -2 -36 3 -3 8 9 12 26 4 17 5 34 2 36 -3
3 -8 -9 -12 -26z"/>
<path d="M1111 5443 c-1 -6 -4 -20 -7 -30 -5 -17 -5 -17 6 0 6 10 9 23 6 30
-3 9 -5 9 -5 0z"/>
<path d="M1080 5324 c-7 -30 -9 -58 -6 -61 3 -4 6 3 6 15 l0 21 55 -19 c68
-24 71 -18 6 11 -48 20 -49 22 -44 55 9 56 -5 38 -17 -22z"/>
<path d="M1060 5241 c0 -8 90 -51 107 -51 7 0 -96 60 -104 60 -1 0 -3 -4 -3
-9z"/>
<path d="M1905 5080 c3 -5 11 -10 16 -10 6 0 7 5 4 10 -3 6 -11 10 -16 10 -6
0 -7 -4 -4 -10z"/>
<path d="M2138 5043 c7 -3 16 -2 19 1 4 3 -2 6 -13 5 -11 0 -14 -3 -6 -6z"/>
<path d="M5485 5020 c-3 -5 -3 -14 0 -20 3 -5 -3 -10 -13 -10 -37 0 -45 -24
-22 -66 25 -48 25 -53 1 -47 -11 3 -18 10 -15 17 3 7 -5 21 -17 31 -21 20 -21
20 -42 -10 -26 -35 -31 -74 -13 -89 20 -16 26 -87 9 -112 -11 -18 -11 -23 2
-34 8 -7 15 -19 15 -26 0 -19 15 -18 35 2 11 11 24 14 43 9 58 -15 92 -13 116
6 21 16 25 17 36 4 21 -26 47 -18 54 16 8 40 3 47 -31 42 -28 -3 -28 -3 -5 9
21 10 23 16 17 59 -4 29 -3 49 4 54 18 10 13 55 -6 62 -10 4 -25 16 -34 27
-16 20 -16 20 -28 -3 -9 -16 -9 -26 -1 -35 8 -10 6 -15 -9 -19 -17 -4 -20 -1
-17 22 2 14 5 31 6 36 6 23 -1 37 -15 31 -8 -3 -15 -1 -15 4 0 6 -5 10 -11 10
-6 0 -17 6 -25 14 -11 11 -11 16 -1 19 9 4 9 6 0 6 -6 1 -15 -3 -18 -9z m-15
-54 c0 -2 -7 -7 -16 -10 -8 -3 -12 -2 -9 4 6 10 25 14 25 6z m183 -86 c-6 -21
-24 -23 -30 -3 -2 6 4 13 14 16 10 3 19 5 20 6 0 0 -1 -8 -4 -19z m-253 -26
c0 -8 -4 -14 -10 -14 -5 0 -10 9 -10 21 0 11 5 17 10 14 6 -3 10 -13 10 -21z
m140 5 c0 -6 6 -9 14 -6 15 6 26 -20 26 -65 0 -43 -20 -33 -21 10 -1 28 -3 32
-7 15 -6 -21 -9 -19 -29 17 -21 39 -21 40 -2 40 10 0 19 -5 19 -11z m70 -31
c0 -16 -3 -19 -11 -11 -6 6 -8 16 -5 22 11 17 16 13 16 -11z m-120 -10 c0 -13
3 -33 6 -45 9 -32 -14 -29 -27 3 -10 28 -4 64 12 64 5 0 9 -10 9 -22z m-53
-10 c-3 -8 -6 -5 -6 6 -1 11 2 17 5 13 3 -3 4 -12 1 -19z m106 -72 c-20 -11
-31 2 -33 39 -3 50 -1 51 24 10 21 -35 22 -41 9 -49z m107 38 c0 -8 -11 -19
-25 -24 -25 -10 -35 -30 -13 -30 14 0 1 -14 -15 -16 -7 0 -20 -2 -30 -2 -10
-1 -16 -6 -12 -11 3 -6 -9 -8 -27 -5 -18 3 -46 6 -63 8 -46 6 -81 21 -66 30 7
5 20 1 30 -8 22 -20 28 -20 28 -2 0 8 -13 17 -29 20 -29 6 -35 20 -18 46 7 11
11 9 19 -12 6 -15 21 -28 38 -33 26 -7 26 -8 8 -15 -15 -6 -7 -9 28 -9 42 -1
52 3 82 34 19 19 35 42 35 51 0 13 3 14 15 4 8 -7 15 -19 15 -26z"/>
<path d="M2288 4943 c7 -3 16 -2 19 1 4 3 -2 6 -13 5 -11 0 -14 -3 -6 -6z"/>
<path d="M3127 4731 c-4 -17 -3 -21 5 -13 5 5 8 16 6 23 -3 8 -7 3 -11 -10z"/>
<path d="M6240 4515 c-11 -13 -10 -14 4 -9 9 3 16 1 16 -5 0 -6 4 -11 9 -11 5
0 7 9 4 20 -6 24 -16 25 -33 5z"/>
<path d="M806 4511 c-16 -3 -31 -11 -33 -17 -3 -8 6 -8 32 0 19 6 35 14 35 18
0 5 -1 7 -2 7 -2 -1 -16 -4 -32 -8z"/>
<path d="M858 4513 c7 -3 16 -2 19 1 4 3 -2 6 -13 5 -11 0 -14 -3 -6 -6z"/>
<path d="M5980 4485 c-58 -12 -123 -32 -145 -44 -25 -13 -57 -21 -88 -21 -27
0 -93 -11 -147 -25 -54 -14 -131 -32 -172 -40 -135 -28 -215 -63 -280 -124
-79 -72 -96 -110 -114 -244 -17 -131 -35 -191 -160 -512 -146 -378 -202 -593
-190 -728 9 -92 10 -127 5 -131 -2 -2 -21 -6 -41 -9 -33 -5 -38 -3 -38 14 0
11 -7 19 -16 19 -13 0 -14 -3 -5 -13 6 -8 8 -17 4 -20 -11 -12 -43 -8 -43 5 0
6 -6 4 -13 -6 -12 -16 -46 -17 -467 -19 -361 -2 -460 1 -478 11 -13 8 -53 13
-93 13 l-69 0 0 67 c0 64 -4 75 -94 262 -51 107 -122 254 -155 325 -34 72 -86
171 -116 220 -30 50 -72 133 -93 185 -53 131 -79 170 -191 283 -79 81 -111
106 -182 142 -232 118 -461 193 -621 205 -59 4 -113 12 -121 18 -13 11 -163
25 -152 14 4 -4 12 -7 17 -7 6 0 13 -6 16 -14 3 -9 0 -11 -8 -6 -10 6 -12 4
-7 -8 3 -10 2 -17 -4 -17 -6 0 -7 -4 -4 -10 3 -5 1 -10 -5 -10 -6 0 -8 -5 -4
-12 5 -7 3 -8 -6 -3 -10 6 -12 4 -6 -10 4 -12 0 -24 -14 -37 -11 -11 -18 -23
-15 -29 4 -5 1 -9 -5 -9 -7 0 -9 -7 -6 -16 3 -8 2 -12 -4 -9 -9 5 -15 -15 -11
-37 0 -5 -4 -8 -10 -8 -5 0 -7 -4 -4 -10 3 -5 1 -10 -5 -10 -6 0 -8 -4 -5 -10
3 -5 1 -10 -4 -10 -6 0 -11 -9 -11 -20 0 -11 -3 -20 -7 -20 -5 0 -16 -20 -26
-45 -11 -25 -23 -45 -29 -45 -5 0 -6 -4 -3 -10 3 -5 1 -10 -5 -10 -7 0 -10 -7
-6 -15 8 -21 -8 -19 -28 4 -17 19 -17 19 3 14 30 -8 26 3 -8 20 -27 14 -28 13
-28 -10 -1 -13 8 -28 19 -34 10 -5 16 -14 13 -20 -8 -12 -25 -12 -25 2 0 6
-14 22 -30 36 -17 14 -29 33 -28 42 2 10 -3 15 -14 13 -12 -2 -16 2 -12 13 5
11 2 14 -11 9 -14 -6 -16 -3 -10 14 4 13 2 22 -4 22 -6 0 -11 -7 -11 -16 0 -8
-5 -12 -11 -8 -6 3 -9 15 -6 25 3 10 1 22 -4 25 -5 3 -9 -2 -9 -11 0 -9 -6
-15 -12 -12 -7 2 -13 13 -13 25 -1 27 -15 42 -15 16 -1 -15 -4 -14 -16 9 -16
30 -27 37 -17 10 4 -11 3 -14 -5 -9 -7 4 -12 17 -12 29 0 18 -2 19 -10 7 -9
-13 -11 -13 -19 -1 -5 8 -7 20 -4 27 2 6 0 15 -6 19 -7 3 -8 0 -5 -9 3 -9 1
-16 -5 -16 -10 0 -15 14 -12 32 0 4 -9 7 -22 5 -17 -1 -21 3 -19 18 2 17 1 17
-8 5 -9 -13 -11 -13 -19 0 -5 8 -7 18 -5 22 3 4 -2 5 -10 2 -11 -4 -19 2 -25
17 -5 13 -10 18 -10 10 -1 -11 -4 -11 -16 -1 -9 7 -13 20 -10 28 4 12 3 13
-10 2 -15 -12 -21 -4 -16 23 1 5 -3 6 -8 3 -14 -9 -43 5 -38 19 3 6 -2 26 -10
42 -10 22 -24 33 -47 37 -30 6 -121 -6 -132 -16 -10 -11 10 -35 72 -88 74 -63
84 -68 84 -46 0 9 5 16 10 16 7 0 7 -7 -1 -21 -6 -13 -7 -24 -2 -28 5 -3 26
-19 47 -35 31 -25 39 -27 48 -15 8 11 9 11 4 -3 -5 -17 43 -61 214 -199 25
-20 77 -68 115 -106 39 -38 83 -79 99 -91 23 -17 26 -25 17 -36 -9 -11 11 -33
106 -112 367 -306 815 -693 1135 -980 87 -78 235 -224 331 -325 212 -224 299
-307 334 -315 15 -4 65 1 110 10 75 16 150 17 718 15 611 -2 636 -1 656 17 12
10 63 73 114 139 181 233 264 324 692 760 846 863 852 869 836 881 -13 9 -13
12 -1 25 7 8 42 48 78 89 35 41 76 89 92 105 15 17 23 32 18 33 -18 6 -10 23
8 18 13 -4 45 22 120 99 56 58 107 116 112 131 13 34 12 74 -3 102 -13 22 -14
22 -45 -25 -17 -26 -42 -60 -56 -75 -26 -27 -34 -44 -17 -33 5 3 13 0 17 -6 5
-9 0 -10 -15 -6 -16 4 -32 -4 -61 -33 -42 -41 -47 -50 -30 -50 17 0 54 -39 46
-47 -4 -5 -13 -1 -19 7 -32 41 -45 43 -78 16 -16 -14 -51 -52 -77 -83 -26 -32
-57 -69 -69 -83 -13 -14 -23 -29 -23 -33 0 -5 -10 -5 -22 -1 -20 6 -21 5 -10
-8 10 -12 9 -18 -2 -28 -22 -18 -39 -3 -25 22 8 16 8 22 -2 29 -9 5 -10 11 -2
21 16 21 23 48 13 48 -6 0 -10 -9 -10 -20 0 -11 -4 -20 -8 -20 -9 0 -79 112
-74 118 2 3 0 8 -5 11 -8 6 -87 140 -88 151 -1 3 -11 21 -23 40 -12 19 -22 40
-22 47 0 6 -6 18 -12 25 -24 24 -59 98 -53 108 10 16 -60 10 -175 -15z m-5036
-161 c4 -10 1 -14 -6 -12 -15 5 -23 28 -10 28 5 0 13 -7 16 -16z m5941 6 c3
-5 1 -10 -4 -10 -6 0 -11 5 -11 10 0 6 2 10 4 10 3 0 8 -4 11 -10z m-6045 -14
c0 -3 -4 -8 -10 -11 -5 -3 -10 -1 -10 4 0 6 5 11 10 11 6 0 10 -2 10 -4z m12
-28 c-7 -7 -12 -8 -12 -2 0 14 12 26 19 19 2 -3 -1 -11 -7 -17z m5998 2 c0 -5
-2 -10 -4 -10 -3 0 -8 5 -11 10 -3 6 -1 10 4 10 6 0 11 -4 11 -10z m-5970 -16
c0 -8 -5 -12 -10 -9 -6 4 -8 11 -5 16 9 14 15 11 15 -7z m6020 10 c0 -3 -7
-12 -16 -21 -11 -12 -18 -13 -27 -4 -8 8 -7 11 6 11 9 0 17 5 17 10 0 6 5 10
10 10 6 0 10 -3 10 -6z m-5994 -41 c-10 -10 -19 5 -10 18 6 11 8 11 12 0 2 -7
1 -15 -2 -18z m99 -11 c-3 -3 -11 0 -18 7 -9 10 -8 11 6 5 10 -3 15 -9 12 -12z
m5795 8 c0 -5 -2 -10 -4 -10 -3 0 -8 5 -11 10 -3 6 -1 10 4 10 6 0 11 -4 11
-10z m54 2 c7 -12 -22 -45 -33 -37 -17 10 -13 25 4 19 11 -5 13 -2 9 10 -6 16
10 23 20 8z m-5878 -35 c14 5 20 -12 6 -21 -14 -8 -44 22 -36 36 7 10 9 9 12
-4 2 -10 9 -15 18 -11z m5784 -7 c0 -5 -4 -10 -10 -10 -5 0 -10 5 -10 10 0 6
5 10 10 10 6 0 10 -4 10 -10z m55 -10 c3 -5 -1 -10 -9 -10 -8 0 -18 5 -21 10
-3 6 1 10 9 10 8 0 18 -4 21 -10z m-5809 -27 c-10 -10 -19 5 -10 18 6 11 8 11
12 0 2 -7 1 -15 -2 -18z m5782 6 c-2 -6 -8 -10 -13 -10 -5 0 -11 4 -13 10 -2
6 4 11 13 11 9 0 15 -5 13 -11z m-5732 -46 c-10 -10 -19 5 -10 18 6 11 8 11
12 0 2 -7 1 -15 -2 -18z m5634 7 c0 -5 -2 -10 -4 -10 -3 0 -8 5 -11 10 -3 6
-1 10 4 10 6 0 11 -4 11 -10z m-5604 -27 c-10 -10 -19 5 -10 18 6 11 8 11 12
0 2 -7 1 -15 -2 -18z m5664 19 c0 -10 -41 -35 -47 -28 -7 7 20 35 35 36 6 0
12 -3 12 -8z m-85 -12 c3 -5 1 -10 -4 -10 -6 0 -11 5 -11 10 0 6 2 10 4 10 3
0 8 -4 11 -10z m-15 -30 c0 -5 -7 -7 -15 -4 -8 4 -15 8 -15 10 0 2 7 4 15 4 8
0 15 -4 15 -10z m-5510 -4 c0 -3 -4 -8 -10 -11 -5 -3 -10 -1 -10 4 0 6 5 11
10 11 6 0 10 -2 10 -4z m20 -26 c0 -5 -4 -10 -10 -10 -5 0 -10 5 -10 10 0 6 5
10 10 10 6 0 10 -4 10 -10z m21 -23 c-8 -8 -11 -7 -11 4 0 20 13 34 18 19 3
-7 -1 -17 -7 -23z m5424 24 c-3 -6 3 -18 14 -28 17 -16 18 -20 6 -37 -10 -13
-19 -16 -32 -10 -16 7 -15 8 5 12 22 3 23 5 7 28 -14 22 -13 44 1 44 3 0 3 -4
-1 -9z m75 3 c0 -10 -28 -34 -39 -34 -6 0 -11 5 -11 10 0 6 7 10 15 10 8 0 15
5 15 10 0 6 5 10 10 10 6 0 10 -3 10 -6z m-5470 -38 c0 -3 -4 -8 -10 -11 -5
-3 -10 -1 -10 4 0 6 5 11 10 11 6 0 10 -2 10 -4z m5375 -6 c3 -5 2 -10 -4 -10
-5 0 -13 5 -16 10 -3 6 -2 10 4 10 5 0 13 -4 16 -10z m-5359 -27 c-10 -10 -19
5 -10 18 6 11 8 11 12 0 2 -7 1 -15 -2 -18z m5334 7 c0 -5 -4 -10 -10 -10 -5
0 -10 5 -10 10 0 6 5 10 10 10 6 0 10 -4 10 -10z m-5285 -29 c-3 -6 -11 -11
-17 -11 -6 0 -6 6 2 15 14 17 26 13 15 -4z m5320 -1 c3 -5 -1 -10 -9 -10 -8 0
-18 5 -21 10 -3 6 1 10 9 10 8 0 18 -4 21 -10z m-5225 -20 c0 -5 -4 -10 -10
-10 -5 0 -10 5 -10 10 0 6 5 10 10 10 6 0 10 -4 10 -10z m-34 -47 c-10 -10
-19 5 -10 18 6 11 8 11 12 0 2 -7 1 -15 -2 -18z m5099 7 c0 -7 -15 -24 -34
-39 l-34 -26 8 25 c14 46 60 76 60 40z m108 13 c3 -5 -1 -13 -8 -20 -10 -10
-16 -9 -26 3 -10 12 -9 13 6 8 13 -5 16 -4 11 4 -4 7 -3 12 3 12 5 0 12 -3 14
-7z m-47 -54 c3 -6 0 -17 -8 -25 -12 -12 -17 -12 -33 2 -19 15 -19 15 9 9 26
-5 28 -4 17 9 -8 10 -9 16 -3 16 6 0 14 -5 18 -11z m-4982 -14 c-6 -16 -24
-21 -24 -7 0 11 11 22 21 22 5 0 6 -7 3 -15z m33 -28 c-6 -20 -26 -19 -24 1 1
12 6 18 14 15 8 -3 12 -10 10 -16z m37 -28 c-8 -14 -34 -11 -34 4 0 8 3 17 7
20 9 9 34 -13 27 -24z m-113 -14 c5 4 9 1 9 -4 0 -13 -3 -13 -24 -5 -9 3 -12
12 -8 22 6 16 7 15 10 -1 2 -9 8 -15 13 -12z m52 8 c-7 -2 -13 -13 -13 -24 0
-10 -4 -19 -10 -19 -11 0 -14 33 -3 43 3 4 13 7 22 6 10 0 12 -2 4 -6z"/>
<path d="M6175 4500 c-3 -5 -1 -10 4 -10 6 0 11 5 11 10 0 6 -2 10 -4 10 -3 0
-8 -4 -11 -10z"/>
<path d="M6195 4480 c-3 -5 -1 -10 4 -10 6 0 11 5 11 10 0 6 -2 10 -4 10 -3 0
-8 -4 -11 -10z"/>
<path d="M6291 4455 c0 -5 6 -21 14 -35 8 -14 14 -20 14 -15 0 6 -6 21 -14 35
-8 14 -14 21 -14 15z"/>
<path d="M749 4423 c-13 -15 -12 -15 6 -6 11 6 27 13 35 16 10 4 8 6 -6 6 -12
1 -28 -6 -35 -16z"/>
<path d="M6230 4389 c0 -5 5 -7 10 -4 6 3 10 8 10 11 0 2 -4 4 -10 4 -5 0 -10
-5 -10 -11z"/>
<path d="M6252 4378 c-7 -9 -6 -17 3 -25 9 -8 16 -9 20 -3 3 6 2 10 -4 10 -6
0 -8 7 -5 15 7 18 0 20 -14 3z"/>
<path d="M6326 4375 c4 -8 11 -15 16 -15 6 0 5 6 -2 15 -7 8 -14 15 -16 15 -2
0 -1 -7 2 -15z"/>
<path d="M6275 4330 c-3 -5 -2 -10 4 -10 5 0 13 5 16 10 3 6 2 10 -4 10 -5 0
-13 -4 -16 -10z"/>
<path d="M6360 4325 c0 -5 5 -17 10 -25 5 -8 10 -10 10 -5 0 6 -5 17 -10 25
-5 8 -10 11 -10 5z"/>
<path d="M1677 4299 c7 -7 15 -10 18 -7 3 3 -2 9 -12 12 -14 6 -15 5 -6 -5z"/>
<path d="M3140 4301 c0 -6 4 -13 10 -16 6 -3 7 1 4 9 -7 18 -14 21 -14 7z"/>
<path d="M6290 4279 c0 -5 5 -7 10 -4 6 3 10 8 10 11 0 2 -4 4 -10 4 -5 0 -10
-5 -10 -11z"/>
<path d="M1675 4270 c3 -5 8 -10 11 -10 2 0 4 5 4 10 0 6 -5 10 -11 10 -5 0
-7 -4 -4 -10z"/>
<path d="M6305 4260 c-3 -5 -1 -10 4 -10 6 0 11 5 11 10 0 6 -2 10 -4 10 -3 0
-8 -4 -11 -10z"/>
<path d="M6327 4243 c-4 -3 -7 -11 -7 -17 0 -6 5 -5 12 2 6 6 9 14 7 17 -3 3
-9 2 -12 -2z"/>
<path d="M2480 4215 c14 -8 30 -14 35 -14 6 0 -1 6 -15 14 -14 8 -29 14 -35
14 -5 0 1 -6 15 -14z"/>
<path d="M1566 4205 c-9 -26 -7 -32 5 -12 6 10 9 21 6 23 -2 3 -7 -2 -11 -11z"/>
<path d="M1635 4210 c3 -5 10 -10 16 -10 5 0 9 5 9 10 0 6 -7 10 -16 10 -8 0
-12 -4 -9 -10z"/>
<path d="M6335 4210 c-3 -5 -1 -10 4 -10 6 0 11 5 11 10 0 6 -2 10 -4 10 -3 0
-8 -4 -11 -10z"/>
<path d="M1622 4194 c10 -10 20 -16 22 -13 3 3 -5 11 -17 18 -21 13 -21 12 -5
-5z"/>
<path d="M6355 4190 c-3 -5 -1 -10 4 -10 6 0 11 5 11 10 0 6 -2 10 -4 10 -3 0
-8 -4 -11 -10z"/>
<path d="M1605 4150 c3 -5 11 -10 16 -10 6 0 7 5 4 10 -3 6 -11 10 -16 10 -6
0 -7 -4 -4 -10z"/>
<path d="M1540 4140 c8 -5 20 -10 25 -10 6 0 3 5 -5 10 -8 5 -19 10 -25 10 -5
0 -3 -5 5 -10z"/>
<path d="M1512 4105 c-15 -32 -15 -35 -2 -35 6 0 10 8 10 18 0 26 11 34 27 21
8 -7 13 -8 13 -1 0 8 -22 22 -34 22 -2 0 -8 -11 -14 -25z"/>
<path d="M1590 4126 c0 -2 7 -6 15 -10 8 -3 15 -1 15 4 0 6 -7 10 -15 10 -8 0
-15 -2 -15 -4z"/>
<path d="M6375 4120 c-3 -5 -2 -10 4 -10 5 0 13 5 16 10 3 6 2 10 -4 10 -5 0
-13 -4 -16 -10z"/>
<path d="M6395 4100 c-3 -5 -1 -10 4 -10 6 0 11 5 11 10 0 6 -2 10 -4 10 -3 0
-8 -4 -11 -10z"/>
<path d="M6415 4080 c-3 -5 -1 -10 4 -10 6 0 11 5 11 10 0 6 -2 10 -4 10 -3 0
-8 -4 -11 -10z"/>
<path d="M1560 4066 c0 -2 7 -6 15 -10 8 -3 15 -1 15 4 0 6 -7 10 -15 10 -8 0
-15 -2 -15 -4z"/>
<path d="M1515 4050 c-3 -5 -1 -10 4 -10 6 0 11 5 11 10 0 6 -2 10 -4 10 -3 0
-8 -4 -11 -10z"/>
<path d="M6420 4049 c0 -5 5 -7 10 -4 6 3 10 8 10 11 0 2 -4 4 -10 4 -5 0 -10
-5 -10 -11z"/>
<path d="M1555 4040 c3 -5 11 -10 16 -10 6 0 7 5 4 10 -3 6 -11 10 -16 10 -6
0 -7 -4 -4 -10z"/>
<path d="M1530 4005 c0 -2 9 -9 20 -15 16 -9 18 -8 14 5 -5 13 -34 22 -34 10z"/>
<path d="M1456 3985 c-9 -26 -7 -32 5 -12 6 10 9 21 6 23 -2 3 -7 -2 -11 -11z"/>
<path d="M6455 3990 c-3 -5 -1 -10 4 -10 6 0 11 5 11 10 0 6 -2 10 -4 10 -3 0
-8 -4 -11 -10z"/>
<path d="M1522 3978 c5 -15 28 -23 28 -10 0 5 -7 13 -16 16 -10 4 -14 1 -12
-6z"/>
<path d="M1510 3950 c0 -6 7 -10 15 -10 8 0 15 2 15 4 0 2 -7 6 -15 10 -8 3
-15 1 -15 -4z"/>
<path d="M1434 3939 c-3 -6 -1 -16 5 -22 8 -8 11 -5 11 11 0 24 -5 28 -16 11z"/>
</g>
</svg>
